<svg xmlns="http://www.w3.org/2000/svg" xmlns:xlink="http://www.w3.org/1999/xlink" version="1.0" x="0px" y="0px" width="416.843px" height="264.583px" viewBox="0 0 416.843 264.583" enable-background="new 0 0 416.843 264.583" xml:space="preserve"><style>.logo-rev-stripes{stroke-width:	2;stroke:	#CCCCCC;stroke-linecap:	round;stroke-miterlimit:	10;fill:	none;}.logo-rev-orange{fill:	#FF9933;}.logo-rev-dash{stroke:	#CCCCCC;stroke-linecap:	round;stroke-miterlimit:	10;fill:	none;}.logo-rev-tectoria{fill:	#00CCCC;}.logo-rev-experience{fill:	#CCCCCC;}.logo-rev-sept{fill:	#383745;}</style><line x1="413.3" y1="254.6" x2="3.4" y2="254.6" class="logo-rev-stripes"/><polygon points="349.1,0 59.1,0 53.1,36.5 355.1,36.5" class="logo-rev-orange"/><line x1="413.3" y1="36.5" x2="3.4" y2="36.5" class="logo-rev-stripes"/><g><line x1="413.3" y1="45.5" x2="414.1" y2="44.7" class="logo-rev-dash"/><line x1="408.4" y1="45.4" x2="413.4" y2="40.5" class="logo-rev-dash"/><line x1="403.4" y1="45.4" x2="408.4" y2="40.5" class="logo-rev-dash"/><line x1="398.4" y1="45.4" x2="403.4" y2="40.5" class="logo-rev-dash"/><line x1="393.4" y1="45.4" x2="398.4" y2="40.5" class="logo-rev-dash"/><line x1="388.4" y1="45.4" x2="393.4" y2="40.5" class="logo-rev-dash"/><line x1="383.4" y1="45.4" x2="388.4" y2="40.5" class="logo-rev-dash"/><line x1="378.4" y1="45.4" x2="383.4" y2="40.5" class="logo-rev-dash"/><line x1="373.4" y1="45.4" x2="378.4" y2="40.5" class="logo-rev-dash"/><line x1="368.4" y1="45.4" x2="373.4" y2="40.5" class="logo-rev-dash"/><line x1="363.4" y1="45.4" x2="368.4" y2="40.5" class="logo-rev-dash"/><line x1="358.4" y1="45.4" x2="363.4" y2="40.5" class="logo-rev-dash"/><line x1="353.4" y1="45.4" x2="358.4" y2="40.5" class="logo-rev-dash"/><line x1="348.4" y1="45.4" x2="353.4" y2="40.5" class="logo-rev-dash"/><line x1="343.4" y1="45.4" x2="348.4" y2="40.5" class="logo-rev-dash"/><line x1="338.4" y1="45.4" x2="343.4" y2="40.5" class="logo-rev-dash"/><line x1="333.4" y1="45.4" x2="338.4" y2="40.5" class="logo-rev-dash"/><line x1="328.4" y1="45.4" x2="333.4" y2="40.5" class="logo-rev-dash"/><line x1="323.4" y1="45.4" x2="328.4" y2="40.5" class="logo-rev-dash"/><line x1="318.4" y1="45.4" x2="323.4" y2="40.5" class="logo-rev-dash"/><line x1="313.4" y1="45.4" x2="318.4" y2="40.5" class="logo-rev-dash"/><line x1="308.4" y1="45.4" x2="313.4" y2="40.5" class="logo-rev-dash"/><line x1="303.4" y1="45.4" x2="308.4" y2="40.5" class="logo-rev-dash"/><line x1="298.4" y1="45.4" x2="303.4" y2="40.5" class="logo-rev-dash"/><line x1="293.4" y1="45.4" x2="298.4" y2="40.5" class="logo-rev-dash"/><line x1="288.4" y1="45.4" x2="293.4" y2="40.5" class="logo-rev-dash"/><line x1="283.4" y1="45.4" x2="288.4" y2="40.5" class="logo-rev-dash"/><line x1="278.4" y1="45.4" x2="283.4" y2="40.5" class="logo-rev-dash"/><line x1="273.4" y1="45.4" x2="278.4" y2="40.5" class="logo-rev-dash"/><line x1="268.4" y1="45.4" x2="273.4" y2="40.5" class="logo-rev-dash"/><line x1="263.4" y1="45.4" x2="268.4" y2="40.5" class="logo-rev-dash"/><line x1="258.4" y1="45.4" x2="263.4" y2="40.5" class="logo-rev-dash"/><line x1="253.4" y1="45.4" x2="258.4" y2="40.5" class="logo-rev-dash"/><line x1="248.4" y1="45.4" x2="253.4" y2="40.5" class="logo-rev-dash"/><line x1="243.4" y1="45.4" x2="248.4" y2="40.5" class="logo-rev-dash"/><line x1="238.4" y1="45.4" x2="243.4" y2="40.5" class="logo-rev-dash"/><line x1="233.4" y1="45.4" x2="238.4" y2="40.5" class="logo-rev-dash"/><line x1="228.4" y1="45.4" x2="233.4" y2="40.5" class="logo-rev-dash"/><line x1="223.4" y1="45.4" x2="228.4" y2="40.5" class="logo-rev-dash"/><line x1="218.4" y1="45.4" x2="223.4" y2="40.5" class="logo-rev-dash"/><line x1="213.4" y1="45.4" x2="218.4" y2="40.5" class="logo-rev-dash"/><line x1="208.4" y1="45.4" x2="213.4" y2="40.5" class="logo-rev-dash"/><line x1="203.4" y1="45.4" x2="208.4" y2="40.5" class="logo-rev-dash"/><line x1="198.4" y1="45.4" x2="203.4" y2="40.5" class="logo-rev-dash"/><line x1="193.4" y1="45.4" x2="198.4" y2="40.5" class="logo-rev-dash"/><line x1="188.4" y1="45.4" x2="193.4" y2="40.5" class="logo-rev-dash"/><line x1="183.4" y1="45.4" x2="188.4" y2="40.5" class="logo-rev-dash"/><line x1="178.4" y1="45.4" x2="183.4" y2="40.5" class="logo-rev-dash"/><line x1="173.4" y1="45.4" x2="178.4" y2="40.5" class="logo-rev-dash"/><line x1="168.4" y1="45.4" x2="173.4" y2="40.5" class="logo-rev-dash"/><line x1="163.4" y1="45.4" x2="168.4" y2="40.5" class="logo-rev-dash"/><line x1="158.4" y1="45.4" x2="163.4" y2="40.5" class="logo-rev-dash"/><line x1="153.4" y1="45.4" x2="158.4" y2="40.5" class="logo-rev-dash"/><line x1="148.4" y1="45.4" x2="153.4" y2="40.5" class="logo-rev-dash"/><line x1="143.4" y1="45.4" x2="148.4" y2="40.5" class="logo-rev-dash"/><line x1="138.4" y1="45.4" x2="143.4" y2="40.5" class="logo-rev-dash"/><line x1="133.4" y1="45.4" x2="138.4" y2="40.5" class="logo-rev-dash"/><line x1="128.4" y1="45.4" x2="133.4" y2="40.5" class="logo-rev-dash"/><line x1="123.4" y1="45.4" x2="128.4" y2="40.5" class="logo-rev-dash"/><line x1="118.4" y1="45.4" x2="123.4" y2="40.5" class="logo-rev-dash"/><line x1="113.4" y1="45.4" x2="118.4" y2="40.5" class="logo-rev-dash"/><line x1="108.4" y1="45.4" x2="113.4" y2="40.5" class="logo-rev-dash"/><line x1="103.4" y1="45.4" x2="108.4" y2="40.5" class="logo-rev-dash"/><line x1="98.4" y1="45.4" x2="103.4" y2="40.5" class="logo-rev-dash"/><line x1="93.4" y1="45.4" x2="98.4" y2="40.5" class="logo-rev-dash"/><line x1="88.4" y1="45.4" x2="93.4" y2="40.5" class="logo-rev-dash"/><line x1="83.4" y1="45.4" x2="88.4" y2="40.5" class="logo-rev-dash"/><line x1="78.4" y1="45.4" x2="83.4" y2="40.5" class="logo-rev-dash"/><line x1="73.4" y1="45.4" x2="78.4" y2="40.5" class="logo-rev-dash"/><line x1="68.4" y1="45.4" x2="73.4" y2="40.5" class="logo-rev-dash"/><line x1="63.4" y1="45.4" x2="68.4" y2="40.5" class="logo-rev-dash"/><line x1="58.4" y1="45.4" x2="63.4" y2="40.5" class="logo-rev-dash"/><line x1="53.4" y1="45.4" x2="58.4" y2="40.5" class="logo-rev-dash"/><line x1="48.4" y1="45.4" x2="53.4" y2="40.5" class="logo-rev-dash"/><line x1="43.4" y1="45.4" x2="48.4" y2="40.5" class="logo-rev-dash"/><line x1="38.4" y1="45.4" x2="43.4" y2="40.5" class="logo-rev-dash"/><line x1="33.4" y1="45.4" x2="38.4" y2="40.5" class="logo-rev-dash"/><line x1="28.4" y1="45.4" x2="33.4" y2="40.5" class="logo-rev-dash"/><line x1="23.4" y1="45.4" x2="28.4" y2="40.5" class="logo-rev-dash"/><line x1="18.4" y1="45.4" x2="23.4" y2="40.5" class="logo-rev-dash"/><line x1="13.4" y1="45.4" x2="18.4" y2="40.5" class="logo-rev-dash"/><line x1="8.4" y1="45.4" x2="13.4" y2="40.5" class="logo-rev-dash"/><line x1="3.4" y1="45.4" x2="8.4" y2="40.5" class="logo-rev-dash"/><line x1="2.7" y1="41.2" x2="3.4" y2="40.5" class="logo-rev-dash"/></g><g><line x1="413.3" y1="263.6" x2="414.1" y2="262.8" class="logo-rev-dash"/><line x1="408.4" y1="263.5" x2="413.4" y2="258.6" class="logo-rev-dash"/><line x1="403.4" y1="263.5" x2="408.4" y2="258.6" class="logo-rev-dash"/><line x1="398.4" y1="263.5" x2="403.4" y2="258.6" class="logo-rev-dash"/><line x1="393.4" y1="263.5" x2="398.4" y2="258.6" class="logo-rev-dash"/><line x1="388.4" y1="263.5" x2="393.4" y2="258.6" class="logo-rev-dash"/><line x1="383.4" y1="263.5" x2="388.4" y2="258.6" class="logo-rev-dash"/><line x1="378.4" y1="263.5" x2="383.4" y2="258.6" class="logo-rev-dash"/><line x1="373.4" y1="263.5" x2="378.4" y2="258.6" class="logo-rev-dash"/><line x1="368.4" y1="263.5" x2="373.4" y2="258.6" class="logo-rev-dash"/><line x1="363.4" y1="263.5" x2="368.4" y2="258.6" class="logo-rev-dash"/><line x1="358.4" y1="263.5" x2="363.4" y2="258.6" class="logo-rev-dash"/><line x1="353.4" y1="263.5" x2="358.4" y2="258.6" class="logo-rev-dash"/><line x1="348.4" y1="263.5" x2="353.4" y2="258.6" class="logo-rev-dash"/><line x1="343.4" y1="263.5" x2="348.4" y2="258.6" class="logo-rev-dash"/><line x1="338.4" y1="263.5" x2="343.4" y2="258.6" class="logo-rev-dash"/><line x1="333.4" y1="263.5" x2="338.4" y2="258.6" class="logo-rev-dash"/><line x1="328.4" y1="263.5" x2="333.4" y2="258.6" class="logo-rev-dash"/><line x1="323.4" y1="263.5" x2="328.4" y2="258.6" class="logo-rev-dash"/><line x1="318.4" y1="263.5" x2="323.4" y2="258.6" class="logo-rev-dash"/><line x1="313.4" y1="263.5" x2="318.4" y2="258.6" class="logo-rev-dash"/><line x1="308.4" y1="263.5" x2="313.4" y2="258.6" class="logo-rev-dash"/><line x1="303.4" y1="263.5" x2="308.4" y2="258.6" class="logo-rev-dash"/><line x1="298.4" y1="263.5" x2="303.4" y2="258.6" class="logo-rev-dash"/><line x1="293.4" y1="263.5" x2="298.4" y2="258.6" class="logo-rev-dash"/><line x1="288.4" y1="263.5" x2="293.4" y2="258.6" class="logo-rev-dash"/><line x1="283.4" y1="263.5" x2="288.4" y2="258.6" class="logo-rev-dash"/><line x1="278.4" y1="263.5" x2="283.4" y2="258.6" class="logo-rev-dash"/><line x1="273.4" y1="263.5" x2="278.4" y2="258.6" class="logo-rev-dash"/><line x1="268.4" y1="263.5" x2="273.4" y2="258.6" class="logo-rev-dash"/><line x1="263.4" y1="263.5" x2="268.4" y2="258.6" class="logo-rev-dash"/><line x1="258.4" y1="263.5" x2="263.4" y2="258.6" class="logo-rev-dash"/><line x1="253.4" y1="263.5" x2="258.4" y2="258.6" class="logo-rev-dash"/><line x1="248.4" y1="263.5" x2="253.4" y2="258.6" class="logo-rev-dash"/><line x1="243.4" y1="263.5" x2="248.4" y2="258.6" class="logo-rev-dash"/><line x1="238.4" y1="263.5" x2="243.4" y2="258.6" class="logo-rev-dash"/><line x1="233.4" y1="263.5" x2="238.4" y2="258.6" class="logo-rev-dash"/><line x1="228.4" y1="263.5" x2="233.4" y2="258.6" class="logo-rev-dash"/><line x1="223.4" y1="263.5" x2="228.4" y2="258.6" class="logo-rev-dash"/><line x1="218.4" y1="263.5" x2="223.4" y2="258.6" class="logo-rev-dash"/><line x1="213.4" y1="263.5" x2="218.4" y2="258.6" class="logo-rev-dash"/><line x1="208.4" y1="263.5" x2="213.4" y2="258.6" class="logo-rev-dash"/><line x1="203.4" y1="263.5" x2="208.4" y2="258.6" class="logo-rev-dash"/><line x1="198.4" y1="263.5" x2="203.4" y2="258.6" class="logo-rev-dash"/><line x1="193.4" y1="263.5" x2="198.4" y2="258.6" class="logo-rev-dash"/><line x1="188.4" y1="263.5" x2="193.4" y2="258.6" class="logo-rev-dash"/><line x1="183.4" y1="263.5" x2="188.4" y2="258.6" class="logo-rev-dash"/><line x1="178.4" y1="263.5" x2="183.4" y2="258.6" class="logo-rev-dash"/><line x1="173.4" y1="263.5" x2="178.4" y2="258.6" class="logo-rev-dash"/><line x1="168.4" y1="263.5" x2="173.4" y2="258.6" class="logo-rev-dash"/><line x1="163.4" y1="263.5" x2="168.4" y2="258.6" class="logo-rev-dash"/><line x1="158.4" y1="263.5" x2="163.4" y2="258.6" class="logo-rev-dash"/><line x1="153.4" y1="263.5" x2="158.4" y2="258.6" class="logo-rev-dash"/><line x1="148.4" y1="263.5" x2="153.4" y2="258.6" class="logo-rev-dash"/><line x1="143.4" y1="263.5" x2="148.4" y2="258.6" class="logo-rev-dash"/><line x1="138.4" y1="263.5" x2="143.4" y2="258.6" class="logo-rev-dash"/><line x1="133.4" y1="263.5" x2="138.4" y2="258.6" class="logo-rev-dash"/><line x1="128.4" y1="263.5" x2="133.4" y2="258.6" class="logo-rev-dash"/><line x1="123.4" y1="263.5" x2="128.4" y2="258.6" class="logo-rev-dash"/><line x1="118.4" y1="263.5" x2="123.4" y2="258.6" class="logo-rev-dash"/><line x1="113.4" y1="263.5" x2="118.4" y2="258.6" class="logo-rev-dash"/><line x1="108.4" y1="263.5" x2="113.4" y2="258.6" class="logo-rev-dash"/><line x1="103.4" y1="263.5" x2="108.4" y2="258.6" class="logo-rev-dash"/><line x1="98.4" y1="263.5" x2="103.4" y2="258.6" class="logo-rev-dash"/><line x1="93.4" y1="263.5" x2="98.4" y2="258.6" class="logo-rev-dash"/><line x1="88.4" y1="263.5" x2="93.4" y2="258.6" class="logo-rev-dash"/><line x1="83.4" y1="263.5" x2="88.4" y2="258.6" class="logo-rev-dash"/><line x1="78.4" y1="263.5" x2="83.4" y2="258.6" class="logo-rev-dash"/><line x1="73.4" y1="263.5" x2="78.4" y2="258.6" class="logo-rev-dash"/><line x1="68.4" y1="263.5" x2="73.4" y2="258.6" class="logo-rev-dash"/><line x1="63.4" y1="263.5" x2="68.4" y2="258.6" class="logo-rev-dash"/><line x1="58.4" y1="263.5" x2="63.4" y2="258.6" class="logo-rev-dash"/><line x1="53.4" y1="263.5" x2="58.4" y2="258.6" class="logo-rev-dash"/><line x1="48.4" y1="263.5" x2="53.4" y2="258.6" class="logo-rev-dash"/><line x1="43.4" y1="263.5" x2="48.4" y2="258.6" class="logo-rev-dash"/><line x1="38.4" y1="263.5" x2="43.4" y2="258.6" class="logo-rev-dash"/><line x1="33.4" y1="263.5" x2="38.4" y2="258.6" class="logo-rev-dash"/><line x1="28.4" y1="263.5" x2="33.4" y2="258.6" class="logo-rev-dash"/><line x1="23.4" y1="263.5" x2="28.4" y2="258.6" class="logo-rev-dash"/><line x1="18.4" y1="263.5" x2="23.4" y2="258.6" class="logo-rev-dash"/><line x1="13.4" y1="263.5" x2="18.4" y2="258.6" class="logo-rev-dash"/><line x1="8.4" y1="263.5" x2="13.4" y2="258.6" class="logo-rev-dash"/><line x1="3.4" y1="263.5" x2="8.4" y2="258.6" class="logo-rev-dash"/><line x1="2.7" y1="259.3" x2="3.4" y2="258.6" class="logo-rev-dash"/></g><g><path d="M4.535 166.418c0-1.375 0.322-2.584 0.967-3.63s1.578-1.569 2.807-1.569h38.916 c1.225 0 2.2 0.5 2.8 1.569c0.645 1 1 2.3 1 3.63c0 1.434-0.338 2.674-1.012 3.7 c-0.676 1.047-1.596 1.568-2.76 1.568H33.791v52.974c0 1.172-0.598 2.096-1.793 2.773c-1.195 0.68-2.592 1.018-4.186 1 c-1.656 0-3.068-0.338-4.232-1.018c-1.166-0.678-1.748-1.602-1.748-2.773v-52.974H8.309c-1.166 0-2.086-0.507-2.76-1.523 C4.873 169.2 4.5 167.9 4.5 166.418z" class="logo-rev-tectoria"/><path d="M61.852 224.698v-59.707c0-1.164 0.521-2.084 1.564-2.76c1.041-0.674 2.268-1.012 3.68-1.012h32.752 c1.227 0 2.2 0.5 2.8 1.563c0.643 1 1 2.2 1 3.588c0 1.472-0.338 2.729-1.012 3.8 c-0.676 1.043-1.596 1.563-2.76 1.563H73.812v18.4h13.982c1.166 0 2.1 0.5 2.8 1.426c0.674 1 1 2.1 1 3.4 c0 1.166-0.322 2.223-0.967 3.174s-1.58 1.426-2.807 1.426H73.812v18.492h26.035c1.164 0 2.1 0.5 2.8 1.6 c0.674 1 1 2.3 1 3.771c0 1.35-0.322 2.545-0.965 3.588c-0.645 1.043-1.58 1.564-2.807 1.564H67.096 c-1.412 0-2.639-0.336-3.68-1.012C62.373 226.8 61.9 225.9 61.9 224.698z" class="logo-rev-tectoria"/><path d="M114.477 207.956v-25.669c0-7.236 1.961-12.558 5.887-15.962s9.047-5.105 15.365-5.105 c6.439 0 11.7 1.6 15.8 4.783c4.078 3.2 6.1 7.4 6.1 12.696c0 2.271-0.461 3.817-1.381 4.646s-2.453 1.242-4.6 1.2 c-3.926 0-5.92-1.256-5.98-3.771c-0.062-0.797-0.139-1.486-0.23-2.07c-0.092-0.582-0.338-1.348-0.736-2.3 c-0.398-0.95-0.904-1.748-1.518-2.392c-0.613-0.645-1.533-1.196-2.76-1.656c-1.227-0.461-2.668-0.69-4.324-0.69 c-6.439 0-9.66 3.528-9.66 10.58v25.669c0 7.1 3.3 10.6 9.8 10.58c1.963 0 3.604-0.307 4.922-0.922 c1.318-0.611 2.27-1.486 2.854-2.621c0.582-1.135 0.98-2.146 1.195-3.035s0.352-1.979 0.414-3.268 c0.184-2.514 2.146-3.771 5.889-3.771c2.146 0 3.7 0.4 4.6 1.242s1.428 2.4 1.4 4.646c0 5.52-2.041 9.936-6.119 13.2 c-4.08 3.312-9.369 4.967-15.869 4.967c-6.318 0-11.424-1.701-15.318-5.105C116.422 220.5 114.5 215.2 114.5 207.956z" class="logo-rev-tectoria"/><path d="M166.914 166.418c0-1.375 0.322-2.584 0.967-3.63s1.578-1.569 2.807-1.569h38.916 c1.227 0 2.2 0.5 2.8 1.569c0.645 1 1 2.3 1 3.63c0 1.434-0.338 2.674-1.012 3.7 c-0.676 1.047-1.596 1.568-2.76 1.568h-13.432v52.974c0 1.172-0.6 2.096-1.795 2.773c-1.195 0.68-2.592 1.018-4.186 1 c-1.656 0-3.068-0.338-4.232-1.018c-1.166-0.678-1.748-1.602-1.748-2.773v-52.974h-13.523c-1.166 0-2.086-0.507-2.76-1.523 C167.252 169.2 166.9 167.9 166.9 166.418z" class="logo-rev-tectoria"/><path d="M221.104 207.956v-25.669c0-7.298 1.945-12.634 5.842-16.008c3.895-3.372 9.121-5.06 15.686-5.06 c6.562 0 11.8 1.7 15.7 5.06c3.924 3.4 5.9 8.7 5.9 16.008v25.669c0 7.299-1.963 12.635-5.887 16 c-3.926 3.373-9.17 5.059-15.732 5.059c-6.564 0-11.791-1.686-15.686-5.059C223.049 220.6 221.1 215.3 221.1 207.956z M233.062 207.956c0 7.1 3.2 10.6 9.6 10.58c6.439 0 9.66-3.527 9.66-10.58v-25.669c0-7.052-3.221-10.58-9.66-10.58 c-6.379 0-9.568 3.528-9.568 10.58V207.956z" class="logo-rev-tectoria"/><path d="M278.877 224.698v-59.799c0-0.98 0.369-1.84 1.105-2.576s1.656-1.104 2.76-1.104h18.215 c14.537 0 21.8 6.4 21.8 19.228c0 5.03-1.09 9.077-3.266 12.144c-2.178 3.068-5.105 5.152-8.787 6.256l12.053 22.4 c0.307 0.4 0.5 0.9 0.5 1.471c0 1.535-0.799 2.961-2.393 4.279c-1.596 1.318-3.281 1.977-5.061 2 s-3.16-0.949-4.139-2.852l-13.064-25.393h-7.729v24.012c0 1.166-0.584 2.086-1.748 2.762c-1.166 0.676-2.576 1.012-4.232 1 c-1.596 0-2.99-0.336-4.186-1.012S278.877 225.9 278.9 224.698z M290.838 191.303h10.119c6.562 0 9.846-3.25 9.846-9.752 c0-6.562-3.283-9.845-9.846-9.845h-10.119V191.303z" class="logo-rev-tectoria"/><path d="M336.744 224.698v-59.799c0-1.227 0.584-2.146 1.748-2.76c1.166-0.613 2.576-0.92 4.232-0.92 s3.066 0.3 4.2 0.92c1.164 0.6 1.7 1.5 1.7 2.76v59.799c0 1.166-0.598 2.086-1.795 2.8 c-1.195 0.676-2.592 1.012-4.186 1.012c-1.656 0-3.066-0.336-4.232-1.012C337.328 226.8 336.7 225.9 336.7 224.698z" class="logo-rev-tectoria"/><path d="M358.969 223.161c0-0.131 0.062-0.459 0.184-0.982l17.775-57.865c0.367-1.159 1.271-2.058 2.713-2.693 c1.441-0.635 3.082-0.953 4.922-0.953c1.842 0 3.5 0.4 5 1.059s2.393 1.7 2.8 2.99l17.756 57.9 c0.123 0.5 0.2 0.8 0.2 0.92c0 1.35-0.828 2.516-2.484 3.496c-1.656 0.982-3.344 1.473-5.061 1.5 c-2.27 0-3.619-0.797-4.049-2.393l-3.496-12.236h-19.711l-3.428 12.244c-0.484 1.59-2.004 2.385-4.561 2.4 c-2.004 0-3.918-0.508-5.74-1.523C359.881 225.9 359 224.7 359 223.161z M378.061 204.459h15.908l-8.004-28.244 L378.061 204.459z" class="logo-rev-tectoria"/></g><g><path d="M27.846 127.167v-54.21c0-0.936 0.469-1.404 1.404-1.404h27.768c0.885 0 1.3 0.4 1.3 1.3 c0 0.988-0.441 1.482-1.326 1.482H30.654v24.258h12.48c0.883 0 1.3 0.5 1.3 1.482c0 0.885-0.441 1.326-1.324 1.326h-12.48 v24.336h26.363c0.885 0 1.3 0.5 1.3 1.482c0 0.885-0.441 1.326-1.326 1.326H29.25 C28.314 128.6 27.8 128.1 27.8 127.167z" class="logo-rev-experience"/><path d="M65.52 127.167c0-0.26 0.078-0.546 0.232-0.858l13.416-26.286l-13.26-26.052 c-0.26-0.519-0.389-0.961-0.389-1.326c0-0.728 0.467-1.092 1.402-1.092c0.625 0 1.4 0.9 2.3 2.808l11.465 22.62l11.545-22.62 c0.936-1.872 1.715-2.808 2.34-2.808c0.936 0 1.4 0.4 1.4 1.092c0 0.364-0.131 0.807-0.391 1.326l-13.338 26.1 l13.494 26.286c0.156 0.3 0.2 0.6 0.2 0.858c0 0.417-0.145 0.754-0.43 1.014c-0.287 0.261-0.611 0.39-0.975 0.4 c-0.209 0-0.404-0.051-0.586-0.156c-0.182-0.104-0.377-0.286-0.584-0.546c-0.105-0.259-0.209-0.468-0.312-0.624l-0.469-0.858 l-0.311-0.624l-11.623-22.698l-11.543 22.698c-0.053 0-0.184 0.208-0.391 0.624l-0.312 0.858c-0.105 0.156-0.248 0.365-0.428 0.6 c-0.184 0.261-0.365 0.442-0.547 0.546c-0.184 0.104-0.377 0.156-0.586 0.156c-0.416 0-0.754-0.129-1.014-0.39 C65.648 127.9 65.5 127.6 65.5 127.167z" class="logo-rev-experience"/><path d="M105.299 127.167V72.879c0-0.78 0.467-1.221 1.402-1.326h13.807c4.627 0 8.3 1.3 11.1 3.9 c2.781 2.6 4.2 6.6 4.2 12.207v0.936c0 5.565-1.391 9.646-4.172 12.246c-2.783 2.601-6.488 3.9-11.115 3.9h-12.402v22.464 c0 0.936-0.467 1.404-1.404 1.404C105.766 128.6 105.3 128.1 105.3 127.167z M108.105 101.895h12.402 c4.004 0 7.084-1.118 9.242-3.354c2.158-2.235 3.238-5.564 3.238-9.984v-0.936c0-4.419-1.08-7.734-3.238-9.945 c-2.158-2.209-5.238-3.315-9.242-3.315h-12.402V101.895z" class="logo-rev-experience"/><path d="M143.516 127.167v-54.21c0-0.936 0.469-1.404 1.404-1.404h27.77c0.883 0 1.3 0.4 1.3 1.3 c0 0.988-0.441 1.482-1.324 1.482h-26.365v24.258h12.48c0.883 0 1.3 0.5 1.3 1.482c0 0.885-0.443 1.326-1.326 1.326h-12.48 v24.336h26.365c0.883 0 1.3 0.5 1.3 1.482c0 0.885-0.441 1.326-1.324 1.326h-27.77 C143.984 128.6 143.5 128.1 143.5 127.167z" class="logo-rev-experience"/><path d="M181.969 127.167V72.879c0-0.78 0.469-1.221 1.404-1.326H196.4c4.783 0 8.7 1.2 11.6 3.5 c2.965 2.3 4.4 6.1 4.4 11.388c0 8.841-4.367 13.781-13.104 14.82l12.871 25.038c0.154 0.3 0.2 0.6 0.2 0.9 c0 0.417-0.129 0.754-0.389 1.014c-0.262 0.261-0.6 0.39-1.014 0.39c-0.209 0-0.404-0.051-0.586-0.156 c-0.184-0.104-0.365-0.286-0.547-0.546c-0.182-0.259-0.324-0.468-0.428-0.624l-0.312-0.858c-0.209-0.416-0.338-0.624-0.391-0.624 l-12.479-24.336h-11.545v25.74c0 0.936-0.467 1.404-1.404 1.404C182.438 128.6 182 128.1 182 127.167z M184.777 98.6 H196.4c4.105 0 7.344-0.987 9.711-2.964c2.365-1.976 3.549-5.043 3.549-9.204c0-4.16-1.184-7.215-3.549-9.165 c-2.367-1.95-5.605-2.925-9.711-2.925h-11.623V98.619z" class="logo-rev-experience"/><path d="M223.152 127.167V72.879c0-0.884 0.469-1.326 1.404-1.326c0.938 0 1.4 0.4 1.4 1.326v54.288 c0 0.936-0.467 1.404-1.404 1.404C223.621 128.6 223.2 128.1 223.2 127.167z" class="logo-rev-experience"/><path d="M238.207 127.167v-54.21c0-0.936 0.469-1.404 1.404-1.404h27.768c0.883 0 1.3 0.4 1.3 1.3 c0 0.988-0.443 1.482-1.326 1.482h-26.363v24.258h12.479c0.885 0 1.3 0.5 1.3 1.482c0 0.885-0.441 1.326-1.326 1.326h-12.479 v24.336h26.363c0.883 0 1.3 0.5 1.3 1.482c0 0.885-0.443 1.326-1.326 1.326h-27.768 C238.676 128.6 238.2 128.1 238.2 127.167z" class="logo-rev-experience"/><path d="M276.27 127.167V72.879c0-0.884 0.469-1.326 1.404-1.326c0.57 0 1.4 0.9 2.4 2.808l23.867 47.3 v-48.75c0-0.884 0.469-1.326 1.404-1.326s1.404 0.4 1.4 1.326v54.288c0 0.936-0.469 1.404-1.404 1.4 c-0.572 0-1.326-0.936-2.262-2.808l-24.023-47.346v48.75c0 0.936-0.469 1.404-1.404 1.404S276.27 128.1 276.3 127.167z" class="logo-rev-experience"/><path d="M315.191 112.971v-25.35c0-5.511 1.443-9.567 4.328-12.168c2.887-2.6 6.617-3.9 11.193-3.9 c4.732 0 8.4 1.2 11 3.627c2.625 2.4 3.9 5.3 3.9 8.619c0 1.457-0.469 2.184-1.404 2.184s-1.404-0.468-1.404-1.404 c-0.053-1.143-0.26-2.223-0.623-3.237c-0.365-1.014-0.949-2.093-1.756-3.237c-0.807-1.144-2.055-2.054-3.744-2.73 c-1.689-0.675-3.73-1.014-6.123-1.014c-8.424 0-12.635 4.42-12.635 13.26v25.35c0 8.8 4.3 13.3 12.9 13.3 c1.975 0 3.691-0.247 5.148-0.741c1.455-0.494 2.561-1.04 3.314-1.638c0.754-0.597 1.404-1.443 1.949-2.535 c0.547-1.092 0.898-1.962 1.055-2.613c0.154-0.649 0.311-1.546 0.467-2.691c0.104-0.936 0.572-1.404 1.404-1.404 c0.936 0 1.4 0.8 1.4 2.262c0 3.225-1.354 6.059-4.057 8.502c-2.703 2.445-6.422 3.666-11.154 3.7 c-4.523 0-8.203-1.299-11.037-3.9C316.607 122.5 315.2 118.5 315.2 112.971z" class="logo-rev-experience"/><path d="M354.721 127.167v-54.21c0-0.936 0.469-1.404 1.404-1.404h27.768c0.883 0 1.3 0.4 1.3 1.3 c0 0.988-0.443 1.482-1.326 1.482h-26.363v24.258h12.479c0.885 0 1.3 0.5 1.3 1.482c0 0.885-0.441 1.326-1.326 1.326h-12.479 v24.336h26.363c0.883 0 1.3 0.5 1.3 1.482c0 0.885-0.443 1.326-1.326 1.326h-27.768 C355.189 128.6 354.7 128.1 354.7 127.167z" class="logo-rev-experience"/></g><g><path d="M106.232 25.84c0-0.208 0.082-0.42 0.246-0.637c0.165-0.217 0.342-0.325 0.533-0.325 c0.139 0 0.3 0.1 0.5 0.338l0.729 0.754c0.26 0.3 0.7 0.5 1.2 0.741c0.563 0.2 1.2 0.3 2 0.3 c1.23 0 2.185-0.308 2.86-0.923c0.676-0.615 1.014-1.503 1.014-2.665c0-0.78-0.16-1.443-0.48-1.989 c-0.322-0.546-0.732-0.966-1.236-1.261c-0.484-0.312-1.039-0.589-1.664-0.832l-1.871-0.728c-0.624-0.243-1.184-0.533-1.678-0.871 c-0.494-0.338-0.9-0.814-1.222-1.43c-0.321-0.615-0.481-1.348-0.481-2.197c0-0.906 0.17-1.686 0.508-2.34s0.793-1.146 1.365-1.477 s1.156-0.571 1.754-0.719c0.599-0.148 1.227-0.222 1.886-0.222c1.058 0 2 0.2 3 0.5 c0.926 0.3 1.4 0.7 1.4 1.131c0 0.208-0.074 0.42-0.221 0.637c-0.148 0.217-0.326 0.325-0.533 0.3 c-0.104 0-0.304-0.08-0.598-0.241c-0.295-0.16-0.707-0.32-1.236-0.481c-0.528-0.16-1.131-0.241-1.807-0.241 c-1.092 0-1.993 0.234-2.703 0.702c-0.711 0.468-1.066 1.239-1.066 2.314c0 0.7 0.2 1.4 0.6 1.9 c0.425 0.5 1 0.9 1.6 1.092c0.641 0.2 1.3 0.5 2.1 0.806c0.744 0.3 1.4 0.6 2.1 1 c0.641 0.4 1.2 0.9 1.6 1.69c0.425 0.8 0.6 1.7 0.6 2.847c0 1.777-0.494 3.109-1.481 4 c-0.988 0.888-2.323 1.333-4.004 1.333c-1.509 0-2.773-0.322-3.797-0.966C106.743 27 106.2 26.4 106.2 25.84z" class="logo-rev-sept"/><path d="M121.767 27.765v-17.68c0-0.208 0.078-0.368 0.233-0.481c0.156-0.113 0.338-0.169 0.547-0.169h9.256 c0.433 0 0.7 0.3 0.7 0.754c0 0.226-0.057 0.42-0.17 0.585c-0.113 0.165-0.272 0.247-0.48 0.247h-8.32v7.15h4.082 c0.208 0 0.4 0.1 0.5 0.221c0.113 0.1 0.2 0.3 0.2 0.559c0 0.468-0.217 0.702-0.65 0.702h-4.082v7.202h8.32 c0.19 0 0.3 0.1 0.5 0.234c0.121 0.2 0.2 0.3 0.2 0.572c0 0.52-0.218 0.78-0.65 0.78h-9.256 c-0.209 0-0.391-0.061-0.547-0.182C121.845 28.1 121.8 28 121.8 27.765z" class="logo-rev-sept"/><path d="M136.904 27.765V10.059c0-0.381 0.242-0.589 0.728-0.624h4.784c1.629 0 2.9 0.4 3.9 1.3 c0.97 0.9 1.5 2.3 1.5 4.186v0.26c0 1.907-0.49 3.306-1.469 4.199c-0.979 0.893-2.293 1.339-3.939 1.339h-3.744v7.02 c0 0.208-0.086 0.373-0.26 0.494c-0.174 0.122-0.373 0.182-0.598 0.182c-0.243 0-0.446-0.061-0.611-0.182 C136.986 28.1 136.9 28 136.9 27.765z M138.619 19.262h3.744c1.18 0 2.089-0.329 2.73-0.988 c0.641-0.659 0.962-1.655 0.962-2.99v-0.312c0-2.635-1.231-3.952-3.692-3.952h-3.744V19.262z" class="logo-rev-sept"/><path d="M151.017 10.228c0-0.205 0.056-0.388 0.169-0.55c0.112-0.162 0.273-0.243 0.48-0.243h10.426 c0.209 0 0.4 0.1 0.5 0.23c0.112 0.2 0.2 0.3 0.2 0.537c0 0.222-0.057 0.414-0.169 0.6 c-0.112 0.162-0.272 0.243-0.481 0.243h-4.342v16.743c0 0.208-0.086 0.373-0.26 0.495s-0.373 0.182-0.598 0.2 c-0.243 0-0.447-0.061-0.611-0.182s-0.246-0.286-0.246-0.495V11.021h-4.369c-0.19 0-0.347-0.077-0.468-0.23 C151.077 10.6 151 10.4 151 10.228z" class="logo-rev-sept"/><path d="M167.117 27.765v-17.68c0-0.208 0.078-0.368 0.234-0.481s0.338-0.169 0.546-0.169h9.257 c0.432 0 0.6 0.3 0.6 0.754c0 0.226-0.057 0.42-0.169 0.585c-0.113 0.165-0.273 0.247-0.48 0.247h-8.32v7.15h4.082 c0.207 0 0.4 0.1 0.5 0.221s0.169 0.3 0.2 0.559c0 0.468-0.217 0.702-0.649 0.702h-4.082v7.202h8.32 c0.189 0 0.3 0.1 0.5 0.234c0.121 0.2 0.2 0.3 0.2 0.572c0 0.52-0.218 0.78-0.649 0.78h-9.257 c-0.208 0-0.39-0.061-0.546-0.182C167.195 28.1 167.1 28 167.1 27.765z" class="logo-rev-sept"/><path d="M182.255 27.765V10.267c0-0.555 0.286-0.832 0.858-0.832c0.502 0 1 0.4 1.4 1.196l4.473 8.6 l4.472-8.632c0.416-0.797 0.876-1.196 1.378-1.196c0.572 0 0.9 0.3 0.9 0.832v17.498c0 0.208-0.083 0.373-0.247 0.5 c-0.165 0.122-0.369 0.182-0.611 0.182c-0.225 0-0.425-0.061-0.598-0.182c-0.174-0.121-0.26-0.286-0.26-0.494V13.152l-4.316 8.2 c-0.191 0.364-0.425 0.546-0.701 0.546c-0.261 0-0.486-0.182-0.677-0.546l-4.29-8.242v14.69c0 0.208-0.087 0.373-0.26 0.5 c-0.174 0.122-0.373 0.182-0.598 0.182c-0.244 0-0.447-0.061-0.611-0.182C182.337 28.1 182.3 28 182.3 27.765z" class="logo-rev-sept"/><path d="M200.941 27.791V10.084c0-0.208 0.078-0.368 0.233-0.481c0.156-0.113 0.338-0.169 0.546-0.169h4.264 c0.797 0 1.5 0.1 2.1 0.182c0.59 0.1 1.1 0.3 1.7 0.65s0.901 0.8 1.2 1.365s0.403 1.3 0.4 2.2 c0 1.075-0.199 1.985-0.598 2.73c-0.399 0.746-0.937 1.266-1.613 1.56c0.867 0.3 1.5 0.9 2 1.6 c0.459 0.7 0.7 1.7 0.7 2.912v0.468c0 1.872-0.468 3.233-1.403 4.082c-0.937 0.85-2.185 1.274-3.744 1.274h-4.889 c-0.242 0-0.434-0.065-0.572-0.195C201.01 28.1 200.9 28 200.9 27.791z M202.631 17.391h3.406 c1.23 0 2.127-0.256 2.691-0.767c0.562-0.511 0.844-1.374 0.844-2.587c0-1.127-0.312-1.911-0.936-2.353 c-0.624-0.442-1.525-0.663-2.704-0.663h-3.302V17.391z M202.631 26.854h3.77c2.427 0 3.641-1.283 3.641-3.848v-0.442 c0-2.461-1.214-3.692-3.641-3.692h-3.77V26.854z" class="logo-rev-sept"/><path d="M216.512 27.765v-17.68c0-0.208 0.078-0.368 0.234-0.481s0.338-0.169 0.546-0.169h9.257 c0.432 0 0.6 0.3 0.6 0.754c0 0.226-0.057 0.42-0.169 0.585c-0.113 0.165-0.273 0.247-0.48 0.247h-8.32v7.15h4.082 c0.207 0 0.4 0.1 0.5 0.221s0.169 0.3 0.2 0.559c0 0.468-0.217 0.702-0.649 0.702h-4.082v7.202h8.32 c0.189 0 0.3 0.1 0.5 0.234c0.121 0.2 0.2 0.3 0.2 0.572c0 0.52-0.218 0.78-0.649 0.78h-9.257 c-0.208 0-0.39-0.061-0.546-0.182C216.59 28.1 216.5 28 216.5 27.765z" class="logo-rev-sept"/><path d="M231.649 27.765V10.059c0-0.381 0.216-0.589 0.649-0.624h4.603c1.681 0 3 0.4 4.1 1.2 c1.031 0.8 1.5 2.1 1.5 3.926c0 2.877-1.352 4.55-4.057 5.018l4.004 7.696c0.069 0.1 0.1 0.2 0.1 0.3 c0 0.226-0.104 0.429-0.312 0.611c-0.209 0.182-0.434 0.273-0.676 0.273c-0.312 0-0.616-0.303-0.91-0.91l-4.004-7.8h-3.303v7.982 c0 0.208-0.087 0.373-0.26 0.494c-0.174 0.122-0.373 0.182-0.598 0.182c-0.244 0-0.447-0.061-0.611-0.182 C231.731 28.1 231.6 28 231.6 27.765z M233.365 18.3h3.536c2.601 0 3.899-1.222 3.899-3.666 c0-2.409-1.299-3.614-3.899-3.614h-3.536V18.3z" class="logo-rev-sept"/><path d="M251.93 13.36c0-0.451 0.182-0.806 0.545-1.066l2.705-2.6c0.189-0.19 0.424-0.286 0.701-0.286 c0.312 0 0.6 0.1 0.8 0.247c0.25 0.2 0.4 0.4 0.4 0.663V27.53c0 0.278-0.139 0.499-0.416 0.7 c-0.277 0.165-0.599 0.247-0.963 0.247c-0.381 0-0.706-0.082-0.975-0.247c-0.27-0.165-0.402-0.385-0.402-0.663V13.074l-0.91 1.1 c-0.174 0.174-0.364 0.26-0.572 0.26c-0.26 0-0.48-0.117-0.663-0.351S251.93 13.6 251.9 13.36z" class="logo-rev-sept"/><path d="M260.943 13.36c0-0.451 0.182-0.806 0.546-1.066l2.704-2.6c0.19-0.19 0.424-0.286 0.701-0.286 c0.312 0 0.6 0.1 0.8 0.247c0.251 0.2 0.4 0.4 0.4 0.663V27.53c0 0.278-0.139 0.499-0.416 0.7 c-0.277 0.165-0.598 0.247-0.962 0.247c-0.382 0-0.706-0.082-0.976-0.247c-0.269-0.165-0.402-0.385-0.402-0.663V13.074l-0.91 1.1 c-0.174 0.174-0.363 0.26-0.572 0.26c-0.26 0-0.48-0.117-0.662-0.351C261.034 13.9 260.9 13.6 260.9 13.36z" class="logo-rev-sept"/><path d="M270.636 23.016c-0.165-0.219-0.247-0.495-0.247-0.828c0-0.333 0.082-0.614 0.247-0.841 c0.165-0.228 0.377-0.342 0.638-0.342h6.76c0.242 0 0.5 0.1 0.6 0.355s0.286 0.5 0.3 0.8 c0 0.333-0.096 0.609-0.286 0.828c-0.19 0.22-0.407 0.329-0.649 0.329h-6.76C271.013 23.3 270.8 23.2 270.6 23.016z" class="logo-rev-sept"/><path d="M281.316 13.36c0-0.451 0.182-0.806 0.546-1.066l2.704-2.6c0.19-0.19 0.424-0.286 0.701-0.286 c0.312 0 0.6 0.1 0.8 0.247c0.251 0.2 0.4 0.4 0.4 0.663V27.53c0 0.278-0.139 0.499-0.416 0.7 c-0.277 0.165-0.598 0.247-0.962 0.247c-0.382 0-0.706-0.082-0.976-0.247c-0.269-0.165-0.402-0.385-0.402-0.663V13.074l-0.91 1.1 c-0.174 0.174-0.363 0.26-0.572 0.26c-0.26 0-0.48-0.117-0.662-0.351C281.407 13.9 281.3 13.6 281.3 13.36z" class="logo-rev-sept"/><path d="M290.66 27.532v-2.519c0-0.779 0.283-1.541 0.849-2.285c0.565-0.744 1.263-1.419 2.09-2.025l2.496-1.817 c0.832-0.605 1.538-1.271 2.119-1.998s0.871-1.453 0.871-2.18c0-0.726-0.239-1.362-0.716-1.907 c-0.477-0.545-1.174-0.817-2.092-0.817c-0.781 0-1.414 0.215-1.898 0.646c-0.486 0.43-0.729 1.067-0.729 1.9 c0 0.275-0.135 0.517-0.402 0.723c-0.27 0.207-0.62 0.31-1.053 0.31c-0.832 0-1.248-0.511-1.248-1.534 c0-1.352 0.523-2.457 1.572-3.315c1.049-0.858 2.301-1.287 3.758-1.287c1.542 0 2.9 0.5 3.9 1.4 c1.083 1 1.6 2.2 1.6 3.746c0 1.039-0.29 2.012-0.871 2.92s-1.282 1.678-2.106 2.31c-0.823 0.632-1.646 1.229-2.47 1.8 c-0.823 0.562-1.525 1.129-2.106 1.7c-0.58 0.571-0.871 1.125-0.871 1.661v0.986h7.645c0.242 0 0.5 0.1 0.6 0.4 c0.183 0.2 0.3 0.5 0.3 0.845c0 0.33-0.09 0.62-0.271 0.871c-0.181 0.251-0.392 0.377-0.633 0.377h-9.192 c-0.275 0-0.547-0.086-0.813-0.26C290.794 28 290.7 27.8 290.7 27.532z" class="logo-rev-sept"/></g></svg>