<svg xmlns="http://www.w3.org/2000/svg" xmlns:xlink="http://www.w3.org/1999/xlink" version="1.0" viewBox="0 0 111.934 111.841" enable-background="new 0 0 111.934 111.841" xml:space="preserve"><style>.smoke{fill:	#00CCCC;}</style><path d="M107.967 65.227c0.326-0.607 0.587-1.25 0.776-1.92c1.849-0.57 3.19-2.287 3.19-4.318 c0-2.344-1.784-4.27-4.071-4.494c0.078-0.367 0.121-0.754 0.121-1.15c0-0.748-0.15-1.461-0.412-2.117 c1.293-1.135 2.104-2.801 2.104-4.656c0-0.197-0.008-0.402-0.028-0.594c0 0 5.92-4.953-2.929-8.107 c0.444-0.895 0.699-1.906 0.699-2.971c0-3.027-2.005-5.58-4.771-6.428c0.416-0.732 0.649-1.586 0.649-2.49 c0-2.779-2.229-5.045-5.011-5.115c-0.218-4.108-3.555-7.389-7.699-7.581c-0.252-2.606-2.416-4.647-5.07-4.647 c-0.904 0-1.758 0.233-2.49 0.649c-0.848-2.766-3.4-4.771-6.428-4.771c-1.064 0-2.076 0.255-2.971 0.7 c-3.154-8.849-8.107-2.929-8.107-2.929c-0.191-0.021-0.396-0.028-0.594-0.028c-1.855 0-3.521 0.812-4.656 2.1 c-0.656-0.262-1.369-0.412-2.117-0.412c-0.396 0-0.783 0.043-1.15 0.121C56.779 1.8 54.9 0 52.5 0 c-2.031 0-3.748 1.342-4.318 3.19c-0.67 0.189-1.312 0.45-1.92 0.776c0 0-4.953-7.601-8.107 1.2 c-0.896-0.444-1.904-0.699-2.971-0.699c-3.025 0-5.58 2.005-6.426 4.771c-0.734-0.416-1.59-0.649-2.492-0.649 c-2.659 0-4.823 2.045-5.071 4.654c-3.818 0.243-6.921 3.108-7.479 6.807c-0.051 0.253-0.091 0.511-0.118 0.8 c-2.762 0.092-4.971 2.345-4.971 5.11c0 0.9 0.2 1.8 0.6 2.49c-2.766 0.848-4.771 3.4-4.771 6.4 c0 1.1 0.3 2.1 0.7 2.971c-8.849 3.154-2.929 8.107-2.929 8.107c-0.021 0.191-0.028 0.396-0.028 0.6 c0 1.9 0.8 3.5 2.1 4.656c-0.262 0.656-0.412 1.369-0.412 2.117c0 0.4 0 0.8 0.1 1.1 C1.784 54.7 0 56.6 0 58.988c0 2 1.3 3.7 3.2 4.318c0.189 0.7 0.5 1.3 0.8 1.92c0 0-7.601 5 1.2 8.1 c-0.444 0.896-0.699 1.904-0.699 2.971c0 3 2 5.6 4.8 6.426c-0.416 0.734-0.649 1.59-0.649 2.5 c0 2.8 2.2 5 4.9 5.105c0.111 4.2 3.4 7.6 7.6 7.865c0.07 2.8 2.3 5 5.1 5 c0.902 0 1.758-0.233 2.492-0.649c0.846 2.8 3.4 4.8 6.4 4.771c1.066 0 2.074-0.255 2.971-0.699 c3.154 8.8 8.1 1.2 8.1 1.248c0.607 0.3 1.2 0.6 1.9 0.776c0.57 1.8 2.3 3.2 4.3 3.2 c2.344 0 4.27-1.784 4.494-4.071c0.367 0.1 0.8 0.1 1.1 0.121c0.748 0 1.461-0.15 2.117-0.412 c1.135 1.3 2.8 2.1 4.7 2.104c0.197 0 0.402-0.008 0.594-0.028c0 0 5 5.9 8.107-2.929 c0.895 0.4 1.9 0.7 3 0.699c3.027 0 5.58-2.005 6.428-4.771c0.732 0.4 1.6 0.6 2.5 0.6 c2.779 0 5.045-2.229 5.115-5.011c3.524-0.187 6.438-2.67 7.319-5.987c0.181-0.598 0.301-1.221 0.335-1.868 c2.781-0.07 5.011-2.334 5.011-5.115c0-0.902-0.233-1.758-0.649-2.492c2.766-0.846 4.771-3.4 4.771-6.426 c0-1.066-0.255-2.074-0.699-2.971C115.568 70.2 108 65.2 108 65.227z" class="smoke"/></svg>