<svg xmlns="http://www.w3.org/2000/svg" xmlns:xlink="http://www.w3.org/1999/xlink" version="1.0" x="0px" y="0px" width="200px" height="200px" viewBox="0 0 200 200" enable-background="new 0 0 200 200" xml:space="preserve"><style>.planet-bg{fill:	#f6f6f6;}.planet-middle{fill:	#97C9BA;}.planet-top{fill:	#a2c9bd;}.planet-spot{fill:	#91cccc;}.planet-bottom{fill:	#97C9BA;}</style><circle cx="100" cy="100" r="100" class="planet-bg"/><path d="M1.416 116.89c0.337 1.9 0.7 3.8 1.2 5.729c6.475-1.753 11.067-5.229 14.644-9.609 c13.133-16.127 12.574-46.754 39.816-46.754c6.831 0 11.9 3.5 17.6 6.614c5.964 3.2 13.2 6.5 25 6.5 c33.308 0 64.001-17.773 71.024-50.094c-3.832-3.818-7.952-7.338-12.348-10.49c-9.917 23.926-25.528 46.552-54.884 46.6 c-15.318 0-30.078-5.358-45.4-5.358c-21.479 0-29.346 13.922-34.761 28.139c-1.348 3.566-2.561 7.115-3.774 10.5 c-2.797 7.712-6.687 18.472-16.748 18.472C2.445 117 2 117 1.4 116.89z" class="planet-middle"/><path d="M0.756 112.375c0.14 1.1 0.3 2.2 0.5 3.278c0.511 0.1 1 0.1 1.5 0.1 c5.479 0 8.935-3.316 11.736-8.578c3.283-6.152 5.146-13.07 7.616-19.556c5.469-14.326 13.628-28.933 35.931-28.933 c15.323 0 30.1 5.4 45.4 5.358c28.657 0 43.976-22.14 53.84-46.052c-6.514-4.549-13.591-8.348-21.109-11.27 c-7.934 17.008-19.819 24.822-33.636 29.718c-7.986 2.815-16.622 4.669-25.542 6.778c-8.872 2.099-18 4.447-27.04 8.3 c-30.41 12.878-23.617 23.189-36.976 48.17c-1.651 3.096-7.486 12.911-11.337 12.911C1.367 112.6 1.1 112.5 0.8 112.375z" class="planet-top"/><path d="M0 99.997c0 3.7 0.2 7.4 0.6 10.972c0.405 0.2 0.8 0.4 1 0.4 c3.057 0 8.877-9.687 10.25-12.262c13.479-25.202 6.691-35.639 37.563-48.718c9.118-3.866 18.322-6.234 27.256-8.339 c26.097-6.177 46.494-10.321 58.322-35.716C124.123 2.2 112.3 0 100 0C44.77 0 0 44.8 0 99.997z" class="planet-top"/><g><path d="M171.689 30.285c-7.466 32.533-38.622 50.282-72.055 50.282c-12.059 0-19.521-3.316-25.601-6.609 c-5.474-2.975-10.48-6.455-17.003-6.455c-17.455 0-22.77 12.781-28.474 26.631c-2.792 6.783-5.7 13.918-10.369 19.7 c-3.741 4.583-8.569 8.223-15.333 10.047c1.854 7.6 4.6 14.8 8 21.62c5.122-5.628 11.149-9.445 18.014-9.445 c9.517 0 17.3 7 26.9 6.971c5.854 0 11.293-2.388 17.08-6.051c5.811-3.674 11.915-8.594 19.044-13.504 c14.335-9.864 32.86-19.767 61.604-19.767c15.391 0 33.3 5.8 44.1 17.778c1.512-6.908 2.311-14.086 2.311-21.442 C200 72.9 189.2 48.3 171.7 30.285z M79.093 107.667c-3.394 19.713-7.914 30.53-20.709 30.5 c-12.791-0.01-25.466-10.177-25.466-30.112c0-20.002 12.675-30.127 25.466-30.117C71.179 78 82.6 87.2 79.1 107.667z" class="planet-middle"/></g><path d="M11.515 146.637l0.077 0.144c4.135-3.615 9.19-3.962 14.615-2.932c8.886 1.7 18.6 7.3 27.5 7.3 c13.175 0 27.661-9.031 38.978-15.039c14.211-7.573 30.246-15.193 49.854-15.193c20.319 0 38.7 8.5 46 25.6 c3.89-7.365 6.87-15.279 8.824-23.588c-10.446-12.026-28.358-18.015-43.826-18.015c-28.407 0-46.686 9.763-60.896 19.6 c-7.139 4.92-13.253 9.84-19.092 13.522c-5.864 3.707-11.53 6.234-17.74 6.234c-9.864 0-17.628-6.966-26.896-6.966 C22.332 137.3 16.5 141 11.5 146.637z" class="planet-middle"/><path d="M12.199 147.917c0.573 1 1.2 2.1 1.8 3.09c5.487-5.801 12.67-3.74 19.737-0.173 c6.013 3 16.1 10.1 22.8 10.095c5.878 0 11.77-1.227 17.744-3.09c18.717-5.868 36.182-16.932 56.435-16.932 c21.552 0 31.5 16.9 34.4 35.018c9.161-7.852 16.883-17.325 22.712-27.989c-6.816-17.166-24.868-25.798-45.227-25.798 c-19.28 0-35.084 7.49-49.271 15.039c-11.568 6.152-26.072 15.198-39.561 15.198c-8.93 0-18.833-5.595-27.757-7.299 C20.845 144.1 16.1 144.4 12.2 147.917z" class="planet-bottom"/><path d="M14.63 152.115C32.196 180.8 63.9 200 100 200c24.334 0 46.642-8.694 63.987-23.146 c-2.72-18.149-12.448-34.71-33.341-34.71c-13.095 0-25.567 4.949-37.843 9.971c-11.323 4.631-23.887 10.056-36.336 10.1 c-7.144 0-16.979-7.023-23.328-10.234C26.01 148.3 19.6 146.7 14.6 152.115z" class="planet-bottom"/><path d="M58.384 79.206C46.334 79.2 34.2 88.7 34.2 108.075c0 19.3 12.2 28.9 24.2 28.9 c12.049 0 16.767-10.08 19.468-29.273C80.745 87 70.4 79.2 58.4 79.206z" class="planet-spot"/></svg>