<svg xmlns="http://www.w3.org/2000/svg" xmlns:xlink="http://www.w3.org/1999/xlink" version="1.0" viewBox="0 0 71.297 66.521" enable-background="new 0 0 71.297 66.521" xml:space="preserve"><style>.rocket-green{fill:	#00CCCC;}.rocket-purple{fill:	#383745;}.rocket-light-green{fill:	#B2F0F0;}.rocket-white{fill:	#FFFFFF;}</style><circle cx="38.5" cy="30.2" r="21.7" class="rocket-green"/><path d="M34.057 44.119L51.271 32.92c0.365-0.257 0.729-0.52 1.092-0.794c0.239-0.179 0.47-0.367 0.697-0.557 l0.467-0.405c6.469-5.926 7.831-15.5 7.699-18.945L71.297 0L58.271 8.881c-3.295-0.555-12.677-0.317-19.263 5.684l-0.459 0.4 c-0.212 0.209-0.424 0.427-0.63 0.651c-0.307 0.34-0.609 0.684-0.904 1.03L23.878 33.245l-9.144-2.037L1.698 49.289l10.537-7.306 l4.45-0.074l-1.342 1.584c0 0 0.1 0.3 0.2 0.856l0.134 0.377c0.367 1 1.1 2.4 2.5 3.8 c1.386 1.5 2.8 2.2 3.7 2.666l1.177 0.421l1.878-1.31l-0.368 4.621l-7.827 9.414L35.46 53.562L34.057 44.119z" class="rocket-purple"/><path d="M12.13 57.504c-5.16 1.713-6.687 3.038-6.687 3.038s0.188-5.468 4.058-8.999 c0.987-0.891 2.026-1.469 3.033-1.827c-2.248 0.449-4.841 1.563-7.129 3.959C0.085 59.2 0 66.5 0 66.5 s2.163-1.994 9.588-5.015c4.929-1.677 7.152-6.491 7.956-9.429C16.717 54.1 15.1 56.7 12.1 57.5" class="rocket-green"/><path d="M16.808 49.909c0 0-4.682-0.39-6.47 2.771c-1.999 3.34-3.142 4.188-3.142 4.188s3.763 0.8 6.763-1.289 C16.979 53.5 16.8 49.9 16.8 49.9" class="rocket-light-green"/><path d="M52.114 22.998c-1.764 1.595-4.486 1.46-6.081-0.303c-1.597-1.762-1.461-4.484 0.302-6.081 c1.763-1.595 4.485-1.46 6.1 0.301C54.011 18.7 53.9 21.4 52.1 23" class="rocket-white"/></svg>