<svg xmlns="http://www.w3.org/2000/svg" xmlns:xlink="http://www.w3.org/1999/xlink" version="1.0" x="0px" y="0px" viewBox="0 0 63.491 175.25" enable-background="new 0 0 63.491 175.25" xml:space="preserve"><style>.rocket-fill{fill:	#383745;}.rocket-window{fill:	#FFFFFF;}</style><g><path d="M47.505 119.908l8.864-41.876c0.16-0.917 0.31-1.841 0.438-2.779c0.089-0.617 0.151-1.234 0.206-1.85 l0.092-1.284c0.799-18.268-11.301-34.384-16.574-39.269L37.366 0l-6.108 32.288c-5.674 4.038-19.15 18.216-20.013 36.8 l-0.028 1.325c-0.004 0.6 0 1.3 0 1.887c0.05 1 0.1 1.9 0.2 2.852l5.045 43.766L0 129.357l7.435 45.9 l4.763-26.298l6.449-6.668l0.356 4.312c0 0 0.6 0.4 1.6 0.92l0.753 0.358c1.978 0.9 5.1 1.9 9.3 2 c4.188 0.1 7.42-0.8 9.445-1.586l2.354-1.115l0.838-4.698l6.268 7.354l2.339 25.41l11.611-43.493L47.505 119.908z" class="rocket-fill"/><path d="M42.99 62.166c-0.25 4.95-4.459 8.765-9.408 8.516c-4.951-0.244-8.763-4.456-8.518-9.407 c0.247-4.948 4.458-8.762 9.406-8.518C39.42 53 43.2 57.2 43 62.2" class="rocket-window"/></g></svg>