<svg xmlns="http://www.w3.org/2000/svg" xmlns:xlink="http://www.w3.org/1999/xlink" version="1.1" x="0px" y="0px" viewBox="0 0 1600 320" enable-background="new 0 0 1600 320" xml:space="preserve"><style>.moon-purple{fill:	#545266}.moon-purple-light{fill:	#8786A5}.moon-dark-purple{fill:	#383744}</style><path d="M0 140l37.6-37.8L47 81.3l5-30.7l8-10.3l13.3 0.1l16.1 24.3l14.3-54.6L135.7 0h51.7L200 91l21.4 18.2 l48.2 14.2l26.8-24.3l26-17.2l11.4-43.5l68.9-6.1l41.8 30.3l31.2 4l18.7-14.2h32.1l14.3 10.1l17.8-6.1L639 81.9l35.7-19.2l14.3 19.2 l23.2-29.3l112.4-4L862 72.8c0 0 32.1 2 33.9-4c1.8-6.1 12.5-28.3 12.5-28.3l28.6-8.1v24.3l14.3-2l7.1-38.9L978 0l19.6 72.8 l48.2 30.3l44.6 2h37.5l32.1 12.1l50-8.1c0 0 33.9-2 44.6 0c10.7 2 89.2 12.1 89.2 12.1l42.8-20.2l16.1-19.2l21.4-11.1v26.3l33.9-4 V64.7l48.2 17.2l7.1-19.2l48.2 48.5L1600 140v110H0V140z" class="moon-purple"/><polygon points="187.5,0 158.3,18.3 135.7,23 140.3,111 161.6,142.3 197,159.7 226.3,185 269.6,123.4 221.4,109.2 200,91" class="moon-purple-light"/><polygon points="66,87 66,49.7 73.3,40.5 89.3,64.7 91,103.7" class="moon-purple-light"/><polygon points="981,34.3 978,0 997.6,72.8 1045.8,103.2 1128.3,106.3 1185.7,126.3 1227.7,109 1256.3,108.3 1345.7,122.3 1267,122.3 1080,209 1022.5,118.5 991,92" class="moon-purple-light"/><polygon points="1424.1,70.8 1413.7,83.7 1417.7,108.3 1424.1,97.1" class="moon-purple-light"/><polygon points="1513.3,62.7 1521.7,103.7 1504.3,138.3 1540.3,137 1600,164.3 1600,140 1561.5,111.3 1537,87.7" class="moon-purple-light"/><polygon points="1458,64.7 1471,94.3 1467,129.7 1506.2,81.9" class="moon-purple-light"/><path d="M1580 217l-43 11l-33.5 17l-36.5-11.5c0 0-83-16-86.5-17.5s-53-9.5-53-9.5l-28-16l-23-1c0 0-2.8 2.7-6.3 6.1 l-5.7 0l-54.5-118.3L1167.1 88l-26.4 56.2c0 0-51.2 32.4-70.9 44.3c-2.5-1.9-4-3.1-4-3.1l-18-46.6l-15.9-21.4l-15.8 51l-6.8-21.9 L997 163.1l-12.1 32.2l-9.3 14.7l-21.8 17.1l-52.2-16.8l-80 6.7L769 235l-24.7-34.7h-16l-6 19.3l-6-28.7l-10 0.7l-8.7 29.3 l-86.7 8.7l-26.7-4.7l-38.7-12l-39.3-10L459 185l-30-2l-14.5 16.1l-3.4 0c-1.5-0.8-3.8-2-6.8-3.5c-0.7-3.5-2.4-8.5-6.2-12.6 c-6.7-7-26.5-29-26.5-29l-9.6-35.9l-8.5-16.5l-4.7 21.9l-11-51l-11 21.4l-12.5 46.6c0 0-1 1.2-2.8 3.1 c-13.6-11.9-49.2-44.3-49.2-44.3L244.1 43l-29.8-10.7l-53.2 166.4l-48.1-4.5l-50.8-11.9L46 194.7l-4-4.7l-7-1l-6 22.5L0 222v98h1600 v-98L1580 217z" class="moon-dark-purple"/><polygon points="402.7,32.4 395.7,97 428.3,67.7 444.4,62.7" class="moon-purple-light"/><polygon points="824.5,48.5 854.5,84 862,72.8" class="moon-purple-light"/><polygon points="526.5,52.6 516,69 540.8,62.7" class="moon-purple-light"/></svg>